<?xml version="1.0" standalone="no"?><svg xmlns="http://www.w3.org/2000/svg" viewBox="0 0 1440 320"><path fill="#0099ff" fill-opacity="1" d="M0,288L12,266.7C24,245,48,203,72,160C96,117,120,75,144,48C168,21,192,11,216,32C240,53,264,107,288,122.7C312,139,336,117,360,96C384,75,408,53,432,42.7C456,32,480,32,504,80C528,128,552,224,576,224C600,224,624,128,648,106.7C672,85,696,139,720,154.7C744,171,768,149,792,128C816,107,840,85,864,112C888,139,912,213,936,234.7C960,256,984,224,1008,208C1032,192,1056,192,1080,165.3C1104,139,1128,85,1152,90.7C1176,96,1200,160,1224,176C1248,192,1272,160,1296,170.7C1320,181,1344,235,1368,250.7C1392,267,1416,245,1428,234.7L1440,224L1440,320L1428,320C1416,320,1392,320,1368,320C1344,320,1320,320,1296,320C1272,320,1248,320,1224,320C1200,320,1176,320,1152,320C1128,320,1104,320,1080,320C1056,320,1032,320,1008,320C984,320,960,320,936,320C912,320,888,320,864,320C840,320,816,320,792,320C768,320,744,320,720,320C696,320,672,320,648,320C624,320,600,320,576,320C552,320,528,320,504,320C480,320,456,320,432,320C408,320,384,320,360,320C336,320,312,320,288,320C264,320,240,320,216,320C192,320,168,320,144,320C120,320,96,320,72,320C48,320,24,320,12,320L0,320Z"></path></svg>